HIERARCHY
ROOT Hips
{
	OFFSET 0.00000 0.00000 0.00000
	CHANNELS 6 Xposition Yposition Zposition Zrotation Yrotation Xrotation 
	JOINT LHipJoint
	{
		OFFSET 0 0 0
		CHANNELS 3 Zrotation Yrotation Xrotation
		JOINT LeftUpLeg
		{
			OFFSET 1.57338 -1.94743 0.52196
			CHANNELS 3 Zrotation Yrotation Xrotation
			JOINT LeftLeg
			{
				OFFSET 2.60333 -7.15259 0.00000
				CHANNELS 3 Zrotation Yrotation Xrotation
				JOINT LeftFoot
				{
					OFFSET 2.77855 -7.63400 0.00000
					CHANNELS 3 Zrotation Yrotation Xrotation
					JOINT LeftToeBase
					{
						OFFSET 0.19847 -0.54529 2.28466
						CHANNELS 3 Zrotation Yrotation Xrotation
						End Site
						{
							OFFSET 0.00000 -0.00000 1.17993
						}
					}
				}
			}
		}
	}
	JOINT RHipJoint
	{
		OFFSET 0 0 0
		CHANNELS 3 Zrotation Yrotation Xrotation
		JOINT RightUpLeg
		{
			OFFSET -1.61527 -1.94743 0.52196
			CHANNELS 3 Zrotation Yrotation Xrotation
			JOINT RightLeg
			{
				OFFSET -2.53829 -6.97390 0.00000
				CHANNELS 3 Zrotation Yrotation Xrotation
				JOINT RightFoot
				{
					OFFSET -2.80762 -7.71387 0.00000
					CHANNELS 3 Zrotation Yrotation Xrotation
					JOINT RightToeBase
					{
						OFFSET -0.30536 -0.83898 2.28801
						CHANNELS 3 Zrotation Yrotation Xrotation
						End Site
						{
							OFFSET -0.00000 -0.00000 1.21323
						}
					}
				}
			}
		}
	}
	JOINT LowerBack
	{
		OFFSET 0 0 0
		CHANNELS 3 Zrotation Yrotation Xrotation
		JOINT Spine
		{
			OFFSET -0.04381 1.99497 -0.19778
			CHANNELS 3 Zrotation Yrotation Xrotation
			JOINT Spine1
			{
				OFFSET -0.01959 2.01295 -0.04372
				CHANNELS 3 Zrotation Yrotation Xrotation
				JOINT Neck
				{
					OFFSET 0 0 0
					CHANNELS 3 Zrotation Yrotation Xrotation
					JOINT Neck1
					{
						OFFSET -0.05459 1.76913 0.09708
						CHANNELS 3 Zrotation Yrotation Xrotation
						JOINT Head
						{
							OFFSET 0.09461 1.77368 -0.11172
							CHANNELS 3 Zrotation Yrotation Xrotation
							End Site
							{
								OFFSET 0.03812 1.78157 -0.04834
							}
						}
					}
				}
				JOINT LeftShoulder
				{
					OFFSET 0 0 0
					CHANNELS 3 Zrotation Yrotation Xrotation
					JOINT LeftArm
					{
						OFFSET 3.50922 1.24034 -0.28866
						CHANNELS 3 Zrotation Yrotation Xrotation
						JOINT LeftForeArm
						{
							OFFSET 5.40188 -0.00000 0.00000
							CHANNELS 3 Zrotation Yrotation Xrotation
							JOINT LeftHand
							{
								OFFSET 3.68559 -0.00000 0.00000
								CHANNELS 3 Zrotation Yrotation Xrotation
								JOINT LeftFingerBase
								{
									OFFSET 0 0 0
									CHANNELS 3 Zrotation Yrotation Xrotation
									JOINT LeftHandIndex1
									{
										OFFSET 0.61753 -0.00000 0.00000
										CHANNELS 3 Zrotation Yrotation Xrotation
										End Site
										{
											OFFSET 0.49787 -0.00000 0.00000
										}
									}
								}
								JOINT LThumb
								{
									OFFSET 0 0 0
									CHANNELS 3 Zrotation Yrotation Xrotation
									End Site
									{
										OFFSET 0.50547 -0.00000 0.50547
									}
								}
							}
						}
					}
				}
				JOINT RightShoulder
				{
					OFFSET 0 0 0
					CHANNELS 3 Zrotation Yrotation Xrotation
					JOINT RightArm
					{
						OFFSET -2.95373 1.39649 -0.27346
						CHANNELS 3 Zrotation Yrotation Xrotation
						JOINT RightForeArm
						{
							OFFSET -6.10670 -0.00000 -0.00000
							CHANNELS 3 Zrotation Yrotation Xrotation
							JOINT RightHand
							{
								OFFSET -3.63052 -0.00000 0.00000
								CHANNELS 3 Zrotation Yrotation Xrotation
								JOINT RightFingerBase
								{
									OFFSET 0 0 0
									CHANNELS 3 Zrotation Yrotation Xrotation
									JOINT RightHandIndex1
									{
										OFFSET -0.58385 -0.00000 0.00000
										CHANNELS 3 Zrotation Yrotation Xrotation
										End Site
										{
											OFFSET -0.47071 -0.00000 0.00000
										}
									}
								}
								JOINT RThumb
								{
									OFFSET 0 0 0
									CHANNELS 3 Zrotation Yrotation Xrotation
									End Site
									{
										OFFSET -0.47790 -0.00000 0.47790
									}
								}
							}
						}
					}
				}
			}
		}
	}
}
MOTION
Frames: 6
Frame Time: 0.0307692
0.00 0.00 0.00 0 0 0 0 0 0 -21 0 0 0 0 0 0 0 0 0 0 0 0 0 0 21 0 0 0 0 0 0 0 0 0 0 0 0 0 0 0 0 0 0 0 0 0 0 -16 0 0 21 0 0 11 0 0 0 -8 0 0 0 0 0 0 0 0 0 0 0 0 0 0 0 0 0 0 0 0 8 0 0 0 0 0 0 0 0 0 0 0 0 0 0 0 0 0
0.00 0.00 0.00 171.5300 -68.8569 -170.0950 0.0000 0.0000 0.0000 -27.6588 1.6596 -3.2802 0.8428 5.8558 16.3665 0.6019 11.5889 -23.0757 0.0254 -1.0284 -2.8271 0.0000 0.0000 0.0000 9.0631 24.7190 -21.2125 -1.9780 -8.8202 25.2344 1.6402 -22.6340 -14.6624 -0.3827 -3.9727 10.9999 -8.1484 -2.5752 11.1829 -2.3159 -4.6109 3.0328 2.7436 -2.3539 -2.6345 -8.8710 -4.7956 -9.9323 13.9653 -7.0969 9.9778 5.2957 -3.0345 5.4620 -0.0000 0.0000 0.0000 -76.4736 -13.5205 24.4114 11.3568 -18.8331 -1.8895 -0.0000 0.0000 -5.4167 25.2631 29.9144 13.2433 -7.1250 0.0000 -0.0000 -7.1437 62.3058 -3.0135 -0.0000 0.0000 0.0000 71.0315 2.1714 -1.7498 -43.2337 49.8732 -20.8793 0.0000 -0.0000 -8.3526 -32.3017 1.6257 -1.0276 7.1250 -0.0000 -0.0000 -4.4249 -28.0472 -1.8297
0.00 0.00 0.00 177.7250 -57.8303 -175.1750 0.0000 0.0000 0.0000 -21.3090 9.8096 -4.9772 2.8373 10.4268 30.3703 0.7519 6.5448 -20.0373 1.1976 -6.9438 -19.5490 0.0000 0.0000 0.0000 20.4717 23.3198 -13.6783 -2.0540 -8.9776 25.7252 0.4460 -15.3518 -16.2271 -0.3089 -3.5733 9.8791 -1.4609 -2.3825 7.4743 0.1842 -3.3357 1.7775 1.3163 -1.6805 -2.2541 -8.6210 -4.7020 -10.2717 12.4015 -7.0671 12.5494 4.7608 -3.0561 6.2408 0.0000 -0.0000 0.0000 -83.3746 -16.9557 43.1973 22.0153 -32.9943 -6.5942 -0.0000 0.0000 -14.9395 22.0019 28.2831 10.8385 -7.1250 0.0000 -0.0000 -9.9461 59.8323 -3.6224 0.0000 -0.0000 0.0000 60.0591 18.4027 -7.6559 -69.3537 58.3264 -42.2203 0.0000 -0.0000 -7.2613 -38.7413 -2.0271 1.6257 7.1250 -0.0000 -0.0000 -9.8077 -32.4710 -3.0476
0.00 0.00 0.00 179.5350 -54.0809 -177.8730 0.0000 0.0000 0.0000 -17.4179 11.4852 -11.4185 6.0086 14.4366 45.0161 0.1075 5.7497 -10.7684 1.3258 -7.2921 -20.5836 0.0000 0.0000 0.0000 23.4778 22.1920 -11.4043 -2.1530 -9.1778 26.3531 0.0310 -11.4198 -15.8058 -0.2687 -3.3345 9.2115 0.0918 -2.1797 7.7803 0.3335 -2.9447 1.6988 0.5836 -1.4924 -2.5876 -8.0389 -4.3177 -9.5296 11.5419 -6.5383 12.4679 4.4443 -2.8589 5.9767 -0.0000 0.0000 0.0000 -82.7753 -15.4603 44.7704 24.0642 -35.2320 -7.7435 -0.0000 0.0000 -17.5709 21.2902 28.6850 10.5946 -7.1250 0.0000 -0.0000 -10.9685 60.0674 -4.0616 -0.0000 0.0000 0.0000 59.7005 22.7575 -5.6540 -70.4219 58.5010 -43.1302 0.0000 -0.0000 -5.1120 -40.4530 -2.6426 2.2513 7.1250 -0.0000 -0.0000 -11.2678 -33.2947 -3.2873
0.00 0.00 0.00 181.7630 -49.6973 -180.9650 0.0000 0.0000 0.0000 -13.1126 6.9023 -18.2479 10.6515 17.7603 61.6444 -0.0158 2.6078 -2.3936 1.0346 -6.4696 -18.1531 0.0000 0.0000 0.0000 26.8399 21.2914 -8.5371 -2.1427 -9.1571 26.2880 -0.1870 -8.0193 -14.6570 -0.2079 -2.9360 8.1005 1.6463 -1.9410 8.3105 0.6982 -2.5120 2.0499 0.0593 -1.2967 -2.5712 -7.3343 -3.9176 -8.3448 11.6636 -6.1501 11.8281 4.4125 -2.6938 5.5142 0.0000 -0.0000 0.0000 -82.7094 -16.1000 44.7533 24.9630 -36.1662 -8.2681 -0.0000 0.0000 -18.5172 21.1201 29.0691 10.6293 -7.1250 0.0000 -0.0000 -11.3889 60.4110 -4.3131 0.0000 -0.0000 0.0000 59.7417 28.1023 -2.6471 -68.0558 58.0999 -41.1170 0.0000 -0.0000 -3.9100 -42.4630 -5.2584 4.7942 7.1250 -0.0000 -0.0000 -13.3244 -36.7959 -2.7489
0.00 0.00 0.00 180.2510 -44.0074 -180.9600 0.0000 0.0000 0.0000 -11.4515 0.8579 -26.5609 15.7644 19.5643 77.5289 0.0562 -0.0879 -4.4468 1.0555 -6.5325 -18.3375 0.0000 0.0000 0.0000 27.4247 22.7118 -5.9499 -2.3034 -9.4713 27.2811 -0.3203 -5.4530 -14.0891 -0.1811 -2.7407 7.5576 0.7926 -1.0942 9.3567 0.1541 -1.4821 2.2046 -0.1099 -0.7882 -2.9708 -8.4085 -4.1190 -8.5027 13.8579 -7.1019 14.4455 5.2475 -3.0821 6.5675 -0.0000 0.0000 0.0000 -82.8593 -17.5724 44.8439 25.5022 -36.7129 -8.5883 -0.0000 0.0000 -19.5646 23.0898 29.6571 11.9119 -7.1250 0.0000 -0.0000 -9.5217 61.4874 -3.8411 -0.0000 0.0000 0.0000 62.1106 32.1419 -0.1004 -64.1018 57.3074 -37.7742 0.0000 -0.0000 -0.4026 -43.5541 -6.8223 6.4437 7.1250 -0.0000 -0.0000 -14.5342 -38.9520 -2.2209
